<?xml version="1.0" encoding="iso-8859-1"?>
<!-- Generator: Adobe Illustrator 18.1.1, SVG Export Plug-In . SVG Version: 6.00 Build 0)  -->
<svg xmlns="http://www.w3.org/2000/svg" xmlns:xlink="http://www.w3.org/1999/xlink" version="1.1" id="Capa_1" x="0px" y="0px" viewBox="0 0 582.646 582.646" style="enable-background:new 0 0 582.646 582.646;" xml:space="preserve" width="512px" height="512px">
<g>
	<g>
		<circle cx="356.393" cy="76.193" r="46.739" fill="#FFFFFF"/>
		<path d="M429.175,141.069c-3.255-2.79-6.743-4.186-10.231-4.651v-0.465    c-22.556-4.651-31.392-0.93-31.392-0.93l-24.881,50.924l-0.233,0.233v-0.233l-5.116-0.465h5.116v0.465l0,0    c0-0.233,0-0.233,0-0.465l0,0l5.348-44.879h0.93v-7.674h-18.835v7.674h0.93l6.278,45.809c0,0-24.416-53.25-26.509-52.32    c0,0-6.976-8.139-32.322,2.093c-20.463,4.418-40.926,8.836-61.621,13.254c-12.324-14.417-23.718-29.764-32.554-46.739    c-6.511-12.324-19.3-13.952-29.066-9.069L99.214,2.248c-2.093-2.558-6.046-3.023-8.604-0.93c-2.558,2.325-3.023,6.046-0.93,8.836    l75.805,91.385c-3.953,5.813-5.116,13.254-0.93,21.16c10.929,20.695,57.435,79.061,57.435,79.061s37.903-10.696,66.039-17.672    c2.558,7.208,4.883,12.092,4.883,12.092l-0.465,180.212v179.514c0,14.882,10.929,26.741,26.044,26.741    s27.439-11.859,27.439-26.741V368.95c0,0,0.93-9.534,10.464-9.534s9.301,9.069,9.301,9.069V555.44    c0,14.649,12.324,26.741,27.439,26.741s27.439-11.859,27.439-26.741l0.93-193.001c0-0.93,0-28.136,0-60.691    c10.464,7.208,26.276,6.511,33.019-8.371c9.999-22.788,39.763-79.991,39.763-79.991S447.08,155.951,429.175,141.069z     M362.439,250.359c-5.348,0-9.766-4.418-9.766-9.766c0-5.348,4.418-9.766,9.766-9.766c5.348,0,9.766,4.418,9.766,9.766    C372.205,245.941,367.787,250.359,362.439,250.359z M362.439,221.06c-5.348,0-9.766-4.418-9.766-9.766s4.418-9.766,9.766-9.766    c5.348,0,9.766,4.418,9.766,9.766C372.205,216.642,367.787,221.06,362.439,221.06z M421.967,258.265c0-25.346,0-48.599,0-60.691    v-2.325c6.511,6.976,12.557,14.417,18.137,22.09C434.059,231.059,428.013,244.778,421.967,258.265z" fill="#FFFFFF"/>
	</g>
</g>
<g>
</g>
<g>
</g>
<g>
</g>
<g>
</g>
<g>
</g>
<g>
</g>
<g>
</g>
<g>
</g>
<g>
</g>
<g>
</g>
<g>
</g>
<g>
</g>
<g>
</g>
<g>
</g>
<g>
</g>
</svg>
