<svg xmlns="http://www.w3.org/2000/svg" viewBox="0 0 582.646 582.646" width="512" height="512"><g fill="#FFF"><circle cx="356.393" cy="76.193" r="46.739"/><path d="M429.175 141.069c-3.255-2.79-6.743-4.186-10.231-4.651v-.465c-22.556-4.651-31.392-.93-31.392-.93l-24.881 50.924-.233.233v-.233l-5.116-.465h5.116l5.348-44.879h.93v-7.674h-18.835v7.674h.93l6.278 45.809s-24.416-53.25-26.509-52.32c0 0-6.976-8.139-32.322 2.093-20.463 4.418-40.926 8.836-61.621 13.254-12.324-14.417-23.718-29.764-32.554-46.739-6.511-12.324-19.3-13.952-29.066-9.069L99.214 2.248c-2.093-2.558-6.046-3.023-8.604-.93-2.558 2.325-3.023 6.046-.93 8.836l75.805 91.385c-3.953 5.813-5.116 13.254-.93 21.16 10.929 20.695 57.435 79.061 57.435 79.061s37.903-10.696 66.039-17.672c2.558 7.208 4.883 12.092 4.883 12.092l-.465 180.212v179.514c0 14.882 10.929 26.741 26.044 26.741s27.439-11.859 27.439-26.741V368.95s.93-9.534 10.464-9.534 9.301 9.069 9.301 9.069V555.44c0 14.649 12.324 26.741 27.439 26.741s27.439-11.859 27.439-26.741l.93-193.001v-60.691c10.464 7.208 26.276 6.511 33.019-8.371 9.999-22.788 39.763-79.991 39.763-79.991s-47.205-57.435-65.11-72.317zm-66.736 109.29c-5.348 0-9.766-4.418-9.766-9.766s4.418-9.766 9.766-9.766 9.766 4.418 9.766 9.766-4.418 9.766-9.766 9.766zm0-29.299c-5.348 0-9.766-4.418-9.766-9.766s4.418-9.766 9.766-9.766 9.766 4.418 9.766 9.766-4.418 9.766-9.766 9.766zm59.528 37.205v-63.016c6.511 6.976 12.557 14.417 18.137 22.09-6.045 13.72-12.091 27.439-18.137 40.926z"/></g></svg>