<svg xmlns="http://www.w3.org/2000/svg" width="512" height="512" viewBox="0 0 180.763 180.763"><g fill="#FFF"><path d="M30.862 53.125c7.155 0 12.976-8.312 12.976-15.469 0-7.17-5.821-12.982-12.976-12.982-7.173 0-12.982 5.812-12.982 12.982 0 7.156 5.809 15.469 12.982 15.469zm25.405 9.042c-.091-.375-.171-.749-.347-1.093-.134-.256-.329-.454-.505-.686-.231-.304-.444-.605-.737-.861-.231-.192-.505-.311-.767-.466-.262-.149-.481-.368-.78-.475-.462-.167-10.79-3.873-20.289-4.357l-1.303 2.606h-.031l3.453 26.923-4.098 7.17-4.11-7.17 3.453-26.923h-.037l-1.303-2.606c-9.493.493-19.814 4.189-20.283 4.357-.298.107-.518.326-.785.481-.262.149-.524.262-.755.454-.305.255-.518.569-.755.88-.165.225-.347.411-.487.66-.183.351-.262.725-.359 1.111-.061.237-.189.43-.219.667l-4.11 36.949a5.142 5.142 0 0 0 5.114 5.705 5.13 5.13 0 0 0 5.091-4.561l3.745-33.661c.433-.131.914-.268 1.425-.411v35.028l-4.08 50.796a6.154 6.154 0 0 0 5.639 6.631c.17.013.335.013.505.013a6.164 6.164 0 0 0 6.132-5.664l3.69-45.905a6.187 6.187 0 0 0 2.49.529c.883 0 1.717-.194 2.479-.529l3.69 45.905a6.164 6.164 0 0 0 6.132 5.664c.17 0 .329 0 .505-.013a6.158 6.158 0 0 0 5.645-6.631l-4.086-50.796V66.861c.512.144.987.28 1.419.411l3.745 33.661a5.13 5.13 0 0 0 5.669 4.531c2.813-.311 4.841-2.855 4.53-5.675L56.486 62.84c-.025-.244-.153-.444-.219-.673zm60.526-23.282c-.024-.255-.11-.462-.171-.618l-.109-.332c-.085-.353-.177-.721-.378-1.114a4.644 4.644 0 0 0-.432-.618l-.201-.262c-.22-.301-.451-.612-.792-.904a3.611 3.611 0 0 0-.651-.417l-.219-.125a2.7 2.7 0 0 1-.22-.144c-.177-.125-.39-.283-.682-.387-1.09-.387-10.613-3.717-19.771-4.335 6.363-1.757 10.984-9.277 10.984-15.869C104.151 6.174 97.978 0 90.396 0c-7.587 0-13.762 6.174-13.762 13.761 0 6.591 4.622 14.112 10.985 15.869-9.152.624-18.682 3.948-19.766 4.335-.292.104-.518.268-.7.393-.073.049-.14.107-.219.144l-.201.112c-.207.113-.438.234-.652.411-.341.286-.584.615-.883 1.017l-.134.167c-.146.186-.298.374-.408.6-.201.378-.292.752-.39 1.114l.712.356-.816-.019c-.061.155-.146.356-.17.603L59.89 75.815a5.853 5.853 0 0 0 1.26 4.345 5.854 5.854 0 0 0 3.964 2.183c3.227.326 6.168-2 6.527-5.218l3.604-32.498v33.302l-4.08 50.796a6.872 6.872 0 0 0 1.632 5.054 6.897 6.897 0 0 0 4.731 2.424c3.854.268 7.161-2.606 7.465-6.363l3.617-44.901a6.878 6.878 0 0 0 3.58 0l3.617 44.901c.286 3.574 3.312 6.388 6.898 6.388.189 0 .372-.013.566-.024a6.924 6.924 0 0 0 4.731-2.424 6.906 6.906 0 0 0 1.632-5.054l-4.086-50.732V44.621l3.611 32.498c.354 3.218 3.282 5.55 6.521 5.218 3.245-.362 5.59-3.285 5.225-6.527l-4.112-36.925zm-38.6-25.112c0-6.729 5.475-12.203 12.203-12.203s12.196 5.474 12.196 12.203c0 6.655-5.443 14.69-12.196 14.69-6.759 0-12.203-8.034-12.203-14.69zm12.404 18.414h-.407l-1.176-2.35c.463.061.914.191 1.389.191s.913-.131 1.376-.191l-1.182 2.35zm3.093 27.535l-3.294 5.766-3.301-5.766 3.301-25.69 3.294 25.69zm21.818 21.093c-2.351.286-4.536-1.47-4.805-3.845l-3.738-33.658-.061-.518-2.923-.843v36.121l4.086 50.792a5.373 5.373 0 0 1-1.267 3.916 5.34 5.34 0 0 1-3.66 1.875c-2.947.207-5.565-2.01-5.803-4.932L93.562 82.73l-1.005.441a5.33 5.33 0 0 1-4.348 0l-1.004-.441-3.775 46.994c-.225 2.776-2.582 4.956-5.358 4.956-.146 0-.292-.013-.432-.024a5.315 5.315 0 0 1-3.666-1.875 5.343 5.343 0 0 1-1.267-3.916l4.086-50.859v-36.06l-2.923.843-3.787 34.176c-.262 2.368-2.442 4.125-4.811 3.845a4.318 4.318 0 0 1-2.917-1.607 4.356 4.356 0 0 1-.932-3.206l4.104-36.949c.006-.04.036-.125.067-.195.042-.119.097-.234.17-.536.073-.298.134-.56.256-.779.067-.131.158-.231.243-.344l.256-.329c.189-.25.347-.469.554-.643.091-.082.225-.149.384-.237l.255-.137c.122-.067.226-.144.341-.226.122-.085.231-.161.323-.198.426-.155 10.382-3.706 19.552-4.284l1.004 2-3.452 26.887 4.914 8.598 4.914-8.58-3.459-26.893.999-1.988c9.176.578 19.132 4.128 19.552 4.284.092.031.195.113.323.192.109.082.225.158.334.225l.263.143c.14.076.279.144.383.237.201.168.366.387.628.743l.17.21c.092.122.189.231.262.356.11.225.171.481.293.929.03.134.079.256.128.38.03.076.061.158.066.201l4.11 36.949a4.364 4.364 0 0 1-3.852 4.802zm34.422-27.69c7.155 0 12.977-8.312 12.977-15.469 0-7.17-5.821-12.982-12.977-12.982-7.167 0-12.981 5.812-12.981 12.982-.001 7.156 5.808 15.469 12.981 15.469zm25.63 9.721c-.031-.25-.159-.45-.22-.679-.104-.375-.177-.749-.359-1.093-.134-.256-.329-.454-.505-.686-.226-.304-.438-.605-.731-.861-.231-.192-.505-.311-.767-.466-.262-.149-.481-.368-.779-.475-.463-.167-10.797-3.873-20.283-4.357l-1.315 2.606h-.03l3.459 26.923-4.11 7.17-4.104-7.17 3.453-26.923h-.037l-1.303-2.606c-9.487.493-19.82 4.189-20.283 4.357-.299.107-.518.326-.785.481-.256.149-.524.262-.749.454-.305.255-.518.569-.762.88-.158.225-.347.411-.48.66-.177.351-.262.725-.359 1.111-.055.237-.188.43-.22.667l-4.104 36.949a5.142 5.142 0 0 0 5.108 5.705c2.576 0 4.805-1.942 5.091-4.561l3.738-33.661c.438-.131.914-.268 1.425-.411v35.028l-4.085 50.796a6.158 6.158 0 0 0 5.65 6.631c.164.013.329.013.493.013a6.16 6.16 0 0 0 6.132-5.664l3.689-45.905a6.14 6.14 0 0 0 2.484.529c.884 0 1.724-.194 2.484-.529l3.696 45.905a6.158 6.158 0 0 0 6.126 5.664c.171 0 .341 0 .506-.013a6.16 6.16 0 0 0 5.645-6.631l-4.086-50.796V66.861c.512.144.986.28 1.431.411l3.739 33.661a5.134 5.134 0 0 0 5.662 4.531 5.134 5.134 0 0 0 4.537-5.675l-4.092-36.943z"/><path d="M67.562 146.31v16.927l16.379 17.526 31.262-32.784v-16.77l-31.176 32.704z"/></g></svg>